<?xml version="1.0" standalone="no"?>
<!DOCTYPE svg PUBLIC "-//W3C//DTD SVG 20010904//EN"
 "http://www.w3.org/TR/2001/REC-SVG-20010904/DTD/svg10.dtd">
<svg version="1.0" xmlns="http://www.w3.org/2000/svg"
 width="540.000000pt" height="540.000000pt" viewBox="0 0 540.000000 540.000000"
 preserveAspectRatio="xMidYMid meet">
<metadata>
Created by potrace 1.11, written by Peter Selinger 2001-2013
</metadata>
<g transform="translate(0.000000,540.000000) scale(0.100000,-0.100000)"
fill="#000000" stroke="none">
<path d="M1435 4931 c-100 -18 -182 -41 -240 -66 -16 -7 -59 -25 -95 -39 -36
-15 -82 -38 -102 -51 -21 -14 -40 -25 -43 -25 -16 0 -149 -99 -220 -163 -236
-212 -380 -445 -462 -745 -24 -89 -26 -117 -30 -332 -5 -222 -3 -242 21 -357
14 -68 31 -137 39 -155 8 -18 27 -64 42 -103 25 -65 35 -86 95 -190 76 -134
250 -326 385 -426 86 -64 244 -154 307 -175 50 -16 74 -37 63 -54 -3 -6 -6
-86 -6 -178 0 -179 17 -298 65 -452 157 -497 581 -888 1086 -1002 94 -20 130
-23 335 -23 200 0 243 3 331 23 163 35 399 139 517 226 210 156 355 320 465
526 127 238 176 448 171 735 -2 121 -1 130 17 134 35 6 219 82 274 113 174 98
358 257 483 420 113 146 222 382 264 573 26 118 26 490 -1 630 -11 55 -27 118
-36 140 -10 22 -30 74 -45 115 -16 41 -36 86 -45 100 -10 14 -27 45 -40 69
-20 39 -92 145 -145 211 -47 59 -177 180 -260 243 -181 135 -457 248 -682 278
-126 17 -403 6 -513 -20 -238 -56 -461 -164 -635 -309 -57 -48 -68 -50 -89
-21 -21 31 -179 144 -271 194 -110 60 -272 122 -380 147 -132 30 -479 35 -620
9z m1309 -422 c-3 -5 0 -8 8 -7 7 2 12 -4 10 -12 -2 -8 0 -12 4 -7 10 10 45
-23 37 -36 -3 -5 -1 -7 4 -4 14 9 121 -131 187 -245 20 -34 23 -47 14 -51 -9
-4 -8 -6 3 -6 13 -1 53 -67 54 -91 1 -3 9 -20 18 -38 17 -32 15 -58 -4 -47 -5
3 -6 -1 -2 -10 4 -12 8 -13 13 -5 10 16 21 -1 31 -49 4 -20 17 -68 28 -108 30
-109 45 -262 37 -393 -5 -86 -10 -118 -21 -126 -13 -10 -14 -12 -1 -17 31 -12
-51 -293 -134 -457 -60 -120 -136 -226 -242 -339 l-60 -63 -35 33 c-191 183
-347 488 -404 789 -15 79 -16 397 -1 460 10 42 46 182 73 277 6 24 15 40 20
37 5 -3 9 3 9 12 0 29 33 94 48 94 7 0 10 5 7 11 -9 14 3 61 14 55 5 -3 8 0 7
7 0 6 4 13 9 14 6 1 13 12 16 25 3 13 11 22 18 20 7 -1 10 2 6 8 -9 15 23 62
37 54 7 -5 9 -2 5 9 -6 17 -3 21 105 144 40 45 76 79 80 77 5 -3 6 -10 2 -15z"/>
<path d="M2975 4190 c-3 -5 -1 -10 4 -10 6 0 11 5 11 10 0 6 -2 10 -4 10 -3 0
-8 -4 -11 -10z"/>
<path d="M2553 3343 c9 -2 23 -2 30 0 6 3 -1 5 -18 5 -16 0 -22 -2 -12 -5z"/>
<path d="M2773 3343 c9 -2 23 -2 30 0 6 3 -1 5 -18 5 -16 0 -22 -2 -12 -5z"/>
<path d="M2458 3333 c12 -2 30 -2 40 0 9 3 -1 5 -23 4 -22 0 -30 -2 -17 -4z"/>
<path d="M2393 3323 c9 -2 23 -2 30 0 6 3 -1 5 -18 5 -16 0 -22 -2 -12 -5z"/>
<path d="M2290 3305 c0 -9 6 -12 15 -9 8 4 15 7 15 9 0 2 -7 5 -15 9 -9 3 -15
0 -15 -9z"/>
<path d="M2338 3313 c6 -2 18 -2 25 0 6 3 1 5 -13 5 -14 0 -19 -2 -12 -5z"/>
</g>
</svg>
