<?xml version="1.0" standalone="no"?>
<!DOCTYPE svg PUBLIC "-//W3C//DTD SVG 20010904//EN"
 "http://www.w3.org/TR/2001/REC-SVG-20010904/DTD/svg10.dtd">
<svg version="1.0" xmlns="http://www.w3.org/2000/svg"
 width="300.000000pt" height="300.000000pt" viewBox="0 0 300.000000 300.000000"
 preserveAspectRatio="xMidYMid meet">
<metadata>
Created by potrace 1.11, written by Peter Selinger 2001-2013
</metadata>
<g transform="translate(0.000000,300.000000) scale(0.100000,-0.100000)"
fill="#000000" stroke="none">
<path d="M1330 2985 c-238 -43 -446 -166 -610 -361 -55 -64 -114 -171 -163
-292 l-26 -63 25 -9 c14 -6 29 -10 33 -10 4 0 0 -28 -8 -63 -13 -60 -15 -63
-41 -59 -35 5 -38 -12 -36 -155 l2 -105 -60 -41 c-124 -84 -244 -209 -304
-318 -11 -20 -25 -45 -31 -55 -22 -39 -61 -143 -81 -220 -30 -108 -34 -305
-10 -425 36 -177 131 -362 254 -495 l54 -59 24 22 23 22 77 -57 c75 -55 76
-57 63 -82 -14 -26 -13 -27 48 -58 138 -69 279 -100 439 -97 139 2 299 31 353
64 6 3 13 6 16 6 3 0 34 13 67 29 l61 29 78 -36 c174 -80 391 -113 563 -87
333 52 607 254 760 560 127 253 126 616 -4 868 -41 81 -50 97 -76 130 -26 32
-26 32 -47 13 l-21 -20 -53 61 c-56 63 -58 71 -32 101 9 9 12 17 7 17 -5 0
-22 11 -37 26 -15 14 -53 42 -85 63 l-57 38 -1 129 c-2 133 -5 162 -24 236 -7
24 -13 50 -15 58 -2 8 -12 39 -24 68 -129 325 -402 555 -741 623 -85 17 -275
19 -360 4z"/>
</g>
</svg>
